# xmcd
#
# Track frame offsets:
#	150
#	13790
#	24530
#	40121
#	51917
#	69525
#	84064
#	96739
#	107939
#	121378
#	135604
#	149307
#	164329
#	178688
#	188124
#	203300
#	211564
#	226509
#	237747
#	251277
#
# Disc length: 3494 seconds
#
# Revision: 1
# Processed by: cddbd v1.5.2PL0 Copyright (c) Steve Scherf et al.
# Submitted via: audiograbber 1.83.01
#
DISCID=0b0da414
DTITLE=Various Artist - 100 Country Gospel Favourites D4
DYEAR=2004
DGENRE=Gospel
TTITLE0=Peace In The Valley
TTITLE1=Turn Your Radio On
TTITLE2=He Cares
TTITLE3=Crying In The Chapel
TTITLE4=Sunday Morning Comimg Down
TTITLE5=In The Garden
TTITLE6=The Prince From Galilee
TTITLE7=Swing Low Sweet Chariot
TTITLE8=Before It's Time For Amen
TTITLE9=Take My Hand Precious Lord
TTITLE10=How Great Thou Art
TTITLE11=Oh Happy Day
TTITLE12=The King Is Coming
TTITLE13=This Old House
TTITLE14=One Day At A Time
TTITLE15=Jesus Is Coming Soon
TTITLE16=Precious Memories
TTITLE17=I'll Fly Away
TTITLE18=Getting Ready To Leave This World
TTITLE19=Will The Circle Be Unbroken
EXTD=
EXTT0=
EXTT1=
EXTT2=
EXTT3=
EXTT4=
EXTT5=
EXTT6=
EXTT7=
EXTT8=
EXTT9=
EXTT10=
EXTT11=
EXTT12=
EXTT13=
EXTT14=
EXTT15=
EXTT16=
EXTT17=
EXTT18=
EXTT19=
PLAYORDER=
